<svg width="450" height="89" viewBox="0 0 450 89" fill="none" xmlns="http://www.w3.org/2000/svg">
<path fill-rule="evenodd" clip-rule="evenodd" d="M44.8389 22.041L22.7968 44.0831V22.041H0.755859L22.7968 0H44.8389V22.0389L66.8779 0H88.92V22.041L66.8779 44.0831V22.041H44.8389ZM66.8779 44.0831H88.92V66.124L66.8779 88.1662V66.124H44.8389L22.7968 88.1662V66.124H0.755859L22.7968 44.0831H44.8389V66.122L66.8779 44.0831ZM388.304 38.5597H380.797V28.5806H388.304V27.0243C388.304 24.0947 388.731 21.5618 389.586 19.4256C390.44 17.2894 391.6 15.5499 393.065 14.2072C394.591 12.8644 396.361 11.8879 398.375 11.2776C400.389 10.6062 402.586 10.2705 404.966 10.2705C406.492 10.2705 408.079 10.3621 409.727 10.5452C411.436 10.7283 413.175 11.0945 414.945 11.6438L413.206 20.9819C411.253 20.4937 409.391 20.2495 407.621 20.2495C405.973 20.2495 404.478 20.7378 403.135 21.7143C401.793 22.6299 401.121 24.3083 401.121 26.7496V28.5806H412.199V38.5597H401.121V76.3701H388.304V38.5597ZM129.42 11.0029H142.421L166.956 76.3701H152.308L147.09 61.2642H124.202L118.984 76.3701H104.885L129.42 11.0029ZM143.519 50.0035L135.554 26.5665L127.681 50.0035H143.519ZM182.817 61.1727C183.244 63.9802 184.373 65.8112 186.204 66.6657C188.035 67.5202 190.232 67.9474 192.796 67.9474C195.847 67.9474 198.014 67.5812 199.296 66.8488C200.638 66.0554 201.31 64.8042 201.31 63.0952C201.31 61.8746 200.883 60.8065 200.028 59.891C199.235 58.9755 197.678 58.3346 195.359 57.9684L188.767 56.8698C182.969 55.9543 178.636 54.3979 175.767 52.2007C172.96 49.9425 171.556 46.5551 171.556 42.0386C171.556 39.7193 172.044 37.6442 173.021 35.8131C174.058 33.9821 175.492 32.4258 177.324 31.1441C179.155 29.8624 181.321 28.8858 183.824 28.2144C186.387 27.482 189.195 27.1158 192.246 27.1158C196.03 27.1158 199.204 27.5126 201.768 28.306C204.331 29.0384 206.406 30.0455 207.993 31.3272C209.641 32.6089 210.862 34.1347 211.655 35.9047C212.509 37.6747 213.12 39.5667 213.486 41.5808L202.042 43.0456C201.493 40.8484 200.516 39.231 199.113 38.1935C197.77 37.1559 195.573 36.6371 192.521 36.6371C190.812 36.6371 189.378 36.7897 188.218 37.0949C187.119 37.339 186.234 37.6747 185.563 38.1019C184.953 38.5292 184.495 39.0174 184.19 39.5667C183.946 40.116 183.824 40.6348 183.824 41.1231C183.824 42.6489 184.281 43.7781 185.197 44.5105C186.173 45.1818 188.035 45.7617 190.781 46.2499L196.824 47.257C200.181 47.8063 202.958 48.5082 205.155 49.3626C207.352 50.2171 209.092 51.2852 210.373 52.5669C211.716 53.7876 212.632 55.2524 213.12 56.9614C213.669 58.6703 213.944 60.6539 213.944 62.9121C213.944 67.4286 212.235 71.0602 208.817 73.8067C205.399 76.4922 200.12 77.8349 192.979 77.8349C190.11 77.8349 187.364 77.5602 184.739 77.0109C182.176 76.5227 179.856 75.6377 177.781 74.356C175.767 73.0743 174.089 71.3653 172.746 69.2291C171.464 67.093 170.732 64.4075 170.549 61.1727H182.817ZM259.729 72.7996C263.208 69.3817 265.192 64.8042 265.68 59.067H252.68C252.436 61.8135 251.612 63.9192 250.208 65.384C248.804 66.8488 246.82 67.5812 244.257 67.5812C242.304 67.5812 240.687 67.1845 239.405 66.3911C238.123 65.5366 237.116 64.4075 236.384 63.0037C235.651 61.5999 235.133 59.9825 234.827 58.1515C234.522 56.3205 234.37 54.3979 234.37 52.3838C234.37 50.4307 234.522 48.5692 234.827 46.7992C235.133 44.9682 235.651 43.3508 236.384 41.947C237.177 40.5433 238.215 39.4447 239.496 38.6512C240.778 37.7967 242.396 37.3695 244.349 37.3695C247.034 37.3695 248.926 38.1324 250.025 39.6583C251.123 41.1231 251.825 43.0762 252.13 45.5175L265.039 43.7781C264.734 41.3367 264.124 39.109 263.208 37.0949C262.293 35.0197 261.011 33.2497 259.363 31.7849C257.715 30.3201 255.67 29.191 253.229 28.3975C250.849 27.5431 248.041 27.1158 244.806 27.1158C241.022 27.1158 237.665 27.7262 234.736 28.9468C231.806 30.1675 229.334 31.907 227.32 34.1652C225.306 36.3625 223.75 39.0479 222.651 42.2217C221.614 45.3344 221.095 48.7828 221.095 52.5669C221.095 56.351 221.552 59.7994 222.468 62.9121C223.383 66.0249 224.757 68.6798 226.588 70.877C228.48 73.0743 230.891 74.7832 233.82 76.0039C236.75 77.2246 240.229 77.8349 244.257 77.8349C251.154 77.8349 256.311 76.1565 259.729 72.7996ZM318.627 61.4473C317.772 66.8183 315.606 70.9076 312.127 73.7151C308.709 76.4616 303.704 77.8349 297.113 77.8349C289.178 77.8349 283.197 75.6377 279.169 71.2433C275.201 66.8488 273.218 60.6234 273.218 52.5669C273.218 48.5387 273.798 44.9682 274.957 41.8555C276.117 38.6817 277.734 35.9962 279.809 33.799C281.946 31.6018 284.479 29.9539 287.408 28.8553C290.338 27.6957 293.573 27.1158 297.113 27.1158C304.437 27.1158 309.93 29.2215 313.592 33.4328C317.315 37.6442 319.176 43.3203 319.176 50.4613V55.5881H286.035C286.157 59.4332 287.134 62.4544 288.965 64.6516C290.796 66.7878 293.542 67.8559 297.204 67.8559C302.27 67.8559 305.261 65.7197 306.176 61.4473H318.627ZM306.817 47.1654C306.817 43.8696 305.993 41.3062 304.345 39.4752C302.758 37.6442 300.256 36.7287 296.838 36.7287C295.129 36.7287 293.634 37.0033 292.352 37.5526C291.07 38.1019 289.972 38.8648 289.056 39.8414C288.202 40.7569 287.53 41.8555 287.042 43.1372C286.554 44.3579 286.279 45.7006 286.218 47.1654H306.817ZM333.446 71.2433C337.657 75.6377 343.608 77.8349 351.298 77.8349C354.96 77.8349 358.287 77.2551 361.277 76.0954C364.268 74.9358 366.801 73.2574 368.876 71.0602C371.012 68.8629 372.63 66.208 373.728 63.0952C374.888 59.9215 375.468 56.351 375.468 52.3838C375.468 48.4777 374.918 44.9682 373.82 41.8555C372.721 38.6817 371.104 36.0268 368.968 33.8906C366.892 31.6934 364.36 30.0149 361.369 28.8553C358.378 27.6957 355.021 27.1158 351.298 27.1158C347.636 27.1158 344.31 27.6957 341.319 28.8553C338.329 30.0149 335.765 31.6934 333.629 33.8906C331.554 36.0268 329.937 38.6817 328.777 41.8555C327.678 44.9682 327.129 48.4777 327.129 52.3838C327.129 60.5623 329.235 66.8488 333.446 71.2433ZM359.446 63.6446C357.676 66.269 354.96 67.5812 351.298 67.5812C347.575 67.5812 344.829 66.2995 343.059 63.7361C341.289 61.1116 340.404 57.3276 340.404 52.3838C340.404 47.5011 341.289 43.7781 343.059 41.2146C344.89 38.6512 347.636 37.3695 351.298 37.3695C354.96 37.3695 357.676 38.6512 359.446 41.2146C361.277 43.7781 362.193 47.5011 362.193 52.3838C362.193 57.2665 361.277 61.0201 359.446 63.6446ZM416.644 38.5597H424.151V60.898C424.151 66.8183 425.402 71.0296 427.905 73.532C430.468 76.0344 434.374 77.2856 439.623 77.2856C441.149 77.2856 442.736 77.1635 444.384 76.9194C446.093 76.7363 447.832 76.3701 449.602 75.8208L447.771 66.3911C446.917 66.6352 446.032 66.8183 445.116 66.9404C444.262 67.0014 443.407 67.0319 442.553 67.0319C440.905 67.0319 439.562 66.6047 438.525 65.7502C437.487 64.8347 436.968 63.1258 436.968 60.6234V38.5597H447.954V28.5806H436.968V15.8551H424.151V28.5806H416.644V38.5597Z" fill="#151B29"></path>
</svg>